<?xml version="1.0" standalone="no"?><!DOCTYPE svg PUBLIC "-//W3C//DTD SVG 1.1//EN" "http://www.w3.org/Graphics/SVG/1.1/DTD/svg11.dtd"><svg t="1566363049219" class="icon" viewBox="0 0 1024 1024" version="1.1" xmlns="http://www.w3.org/2000/svg" p-id="2029" xmlns:xlink="http://www.w3.org/1999/xlink" width="200" height="200"><defs><style type="text/css"></style></defs><path d="M373.53 153.71a383.57 383.57 0 0 0-201 173.87h141.2c15.58-80.91 39.7-137.69 59.8-173.87z m122.11 173.37v-198c-30.15 1-59.3 6-87.44 13.06-21.6 35.68-49.24 96-66.33 184.93z m347.74 0A388.93 388.93 0 0 0 646.9 154.21c20.1 36.69 43.71 93 59.29 172.87zM611.72 143.16a387.09 387.09 0 0 0-87.44-14.07v198.49h153.77c-17.59-88.95-44.72-148.74-66.33-184.42z m34.67 726.63c84.43-32.67 153.77-94.47 197-172.87h-137.2c-15.57 79.9-39.7 136.69-59.8 172.87zM524.28 696.92v198c29.65-1.5 58.8-5.52 86.94-13.06 21.1-35.18 48.74-95.48 66.33-184.42H524.28z m-351.25 0c44.22 79.4 115.08 142.21 201.51 173.87-20.61-36.18-44.73-93-60.3-173.87z m236.68 184.93a377.7 377.7 0 0 0 86.43 13.06v-198H342.88c17.59 89.45 45.22 149.75 66.83 184.93zM241.87 617V394.92h-28.14v174.37L97.15 394.92H67V617h28.14V442.65L211.72 617z m210.56-196v-26.08H291.62V617h165.83v-26.11H321.27v-75.37h122.61v-26.13H321.27v-68.34z m84.42 196H567l47.23-169.34c2-7 4-16.08 6.54-26.13 0.5 3 3 12.06 7 26.13L674.54 617h28.14L763 394.92h-29.67l-34.67 142.71c-4.53 18.09-8 34.17-11.06 48.24a568.54 568.54 0 0 0-17.08-78.39l-31.66-112.56h-35.18l-42.21 149.74c-1 3.52-4.52 17.09-10.05 41.21-2.51-15.08-5.53-30.15-9.55-45.23L508.2 394.92h-30.15L536.85 617z m411.05-94.45q-9-13.56-28.64-22.61c-9-4-25.13-8.54-49.25-14.07s-38.69-10.55-44.22-15.58a25.45 25.45 0 0 1-8.54-19.6c0-9 4-17.08 12.06-23.61s21.1-9.55 38.69-9.55c17.09 0 30.15 3.52 38.7 10.55s14.07 17.59 15.57 31.66l28.14-2a66.22 66.22 0 0 0-11-35.18c-6.53-10.05-16.58-18.09-29.15-23.61s-27.13-8-43.72-8q-22.61 0-40.7 7.53c-12.06 5-21.61 12.57-27.64 22.11a54.62 54.62 0 0 0-9.54 31.66c0 10.05 2.51 19.6 8 27.64 5 8 13.06 15.07 23.61 20.6 8 4.53 22.62 9.05 42.72 14.07 20.6 5 33.67 8.55 39.7 11.06 9 3.52 16.08 8 20.1 13.06a28.08 28.08 0 0 1 6 18.09 30.31 30.31 0 0 1-6.54 19.1c-4 6-10.55 10.55-19.09 13.57-8.55 3.51-18.6 5-29.65 5-12.56 0-24.12-2-34.17-6.53s-17.59-10-22.11-17.09q-7.54-10.54-9-27.13l-27.63 2.51c0.5 15.08 4.52 28.14 12.06 39.7s18.59 20.6 32.16 26.63 30.65 8.55 50.25 8.55c16.08 0 30.15-3 42.71-8.55 12.56-6 22.61-14.07 29.15-24.62S957 566.27 957 554.71c0.5-12.56-2.52-23.11-9.05-32.16z" p-id="2030" fill="#515151"></path></svg>