<?xml version="1.0" standalone="no"?><!DOCTYPE svg PUBLIC "-//W3C//DTD SVG 1.1//EN" "http://www.w3.org/Graphics/SVG/1.1/DTD/svg11.dtd"><svg t="1566287860996" class="icon" viewBox="0 0 1024 1024" version="1.1" xmlns="http://www.w3.org/2000/svg" p-id="10812" xmlns:xlink="http://www.w3.org/1999/xlink" width="200" height="200"><defs><style type="text/css"></style></defs><path d="M512 1024C229.052632 1024 0 794.947368 0 512S229.052632 0 512 0s512 229.052632 512 512-229.052632 512-512 512z m0-970.105263C258.694737 53.894737 53.894737 258.694737 53.894737 512s204.8 458.105263 458.105263 458.105263 458.105263-204.8 458.105263-458.105263S765.305263 53.894737 512 53.894737z" fill="#bfbfbf" p-id="10813"></path><path d="M722.189474 538.947368h-431.157895c-16.168421 0-26.947368-10.778947-26.947368-26.947368s10.778947-26.947368 26.947368-26.947368h431.157895c16.168421 0 26.947368 10.778947 26.947368 26.947368s-13.473684 26.947368-26.947368 26.947368z" fill="#bfbfbf" p-id="10814"></path></svg>