<?xml version="1.0" standalone="no"?><!DOCTYPE svg PUBLIC "-//W3C//DTD SVG 1.1//EN" "http://www.w3.org/Graphics/SVG/1.1/DTD/svg11.dtd"><svg t="1566364356566" class="icon" viewBox="0 0 1024 1024" version="1.1" xmlns="http://www.w3.org/2000/svg" p-id="6945" xmlns:xlink="http://www.w3.org/1999/xlink" width="200" height="200"><defs><style type="text/css"></style></defs><path d="M884.722 497.856L711.41 324.543c-5.55-5.55-14.099-7.524-21.796-4.335-7.699 3.188-12.348 10.629-12.348 18.478v122.186H343.819c-19.884 0-36 22.89-36 51.127 0 28.24 16.116 51.128 36 51.128h333.448v122.18c0 7.849 4.647 15.288 12.348 18.479 7.697 3.188 16.246 1.214 21.796-4.336l173.312-173.308a19.934 19.934 0 0 0 5.858-14.143 19.94 19.94 0 0 0-5.859-14.143z" fill="#FFFFFF" p-id="6946"></path><path d="M637.567 792.828H267.18c-12.796 0-25.592-4.882-35.355-14.646-9.763-9.764-14.645-22.56-14.645-35.354V281.144c0-12.796 4.882-25.593 14.645-35.355 9.764-9.764 22.56-14.645 35.355-14.645h367.552c15.84 0 28.68-19.853 28.68-42.242 0-22.389-12.84-40.823-28.68-40.823H183.991c-12.796 0-25.592 4.881-35.355 14.645-9.763 9.763-14.645 22.56-14.645 35.355v627.834c0 12.796 4.882 25.592 14.645 35.354 9.764 9.764 22.56 14.646 35.355 14.646h453.577c16.943 0 30.68-18.248 30.68-40.41-0.001-22.161-13.736-42.675-30.681-42.675z" fill="#FFFFFF" p-id="6947"></path><path d="M386.136 117.827H242.445v791.45h143.691v-0.458c218.394-0.045 395.42-177.099 395.42-395.488 0-218.403-177.027-395.459-395.42-395.504z m164.08 407.322l-76.204 69.905a17.478 17.478 0 0 1-11.85 4.614 17.49 17.49 0 0 1-12.927-5.681c-6.548-7.138-6.07-18.23 1.066-24.778l61.722-56.616-62.647-54.381c-7.313-6.349-8.095-17.424-1.746-24.738 6.349-7.312 17.424-8.095 24.737-1.746l77.49 67.261c3.772 3.275 5.971 8.005 6.039 13.001s-2 9.781-5.68 13.159z" fill="#A6A6A6" p-id="6948"></path></svg>