<?xml version="1.0" standalone="no"?><!DOCTYPE svg PUBLIC "-//W3C//DTD SVG 1.1//EN" "http://www.w3.org/Graphics/SVG/1.1/DTD/svg11.dtd"><svg t="1566463622867" class="icon" viewBox="0 0 1024 1024" version="1.1" xmlns="http://www.w3.org/2000/svg" p-id="21347" xmlns:xlink="http://www.w3.org/1999/xlink" width="200" height="200"><defs><style type="text/css"></style></defs><path d="M512.062439 0C229.588293 0 0.686829 228.776585 0.686829 511.000976c0 260.620488 195.309268 475.785366 447.687805 507.004878 14.236098 2.997073 31.594146 4.745366 52.199025 4.745366 5.74439 0 11.363902-0.374634 16.733658-0.874147 279.976585-2.872195 506.005854-230.524878 506.005854-510.876097C1023.313171 228.776585 794.411707 0 512.062439 0z m-80.671219 972.300488C211.356098 933.962927 44.019512 742.150244 44.019512 511.125854c0-33.092683 3.496585-65.436098 9.990244-96.530732 20.230244 21.603902 67.933659 21.10439 79.547317-11.239024 20.854634 12.362927 48.827317 14.610732 48.827317 39.461463 0 81.795122 2.872195 169.58439 77.299512 170.833171 2.122927 0 41.459512 14.985366 60.19122 63.438048 6.493659 16.858537 32.093659 0 60.191219 0 13.986341 0 0 23.601951 0 74.801952 0 50.950244 109.767805 129.24878 109.767805 129.24878-0.499512 33.717073 0.874146 60.940488 3.621464 82.669268-24.725854-0.374634-45.705366 2.997073-62.06439 8.491708z m196.558048-7.242927c-2.372683-11.863415-13.112195-18.357073-32.468292-13.237073 15.484878-65.93561 22.977561-102.774634 55.320975-130.872195 46.70439-40.460488 5.494634-85.541463-29.970731-80.296586-28.097561 4.245854-10.364878-34.716098-35.340488-36.839024-24.97561-2.122927-57.693659-51.82439-93.658537-68.932683-19.106341-8.99122-37.838049-33.342439-67.309268-34.466341-26.099512-0.999024-64.187317 22.103415-64.187317 4.245853 0-57.319024-5.869268-98.154146-6.993171-114.388292-0.999024-13.112195-8.616585-4.370732 26.723902-3.621464 19.23122 0.499512 9.865366-38.587317 28.84683-40.085854 18.606829-1.498537 63.063415 17.482927 74.427317 9.865366 10.489756-6.993171 77.42439 175.453659 77.42439 30.09561 0-17.233171-8.99122-47.203902 0-63.562927 35.340488-64.437073 68.308293-117.010732 65.436098-124.753171-1.748293-4.370732-36.089756-7.867317-63.687805 1.373659-9.240976 3.121951 2.997073 17.732683-10.364878 20.729756-50.076098 11.613659-94.282927-13.486829-78.798049-36.963902 15.859512-24.101463 73.303415-10.489756 78.298536-58.942439 2.872195-27.722927 5.244878-59.816585 6.868293-83.668293 67.309268 10.489756 59.941463-87.414634-40.210732-97.90439 202.552195 2.372683 374.134634 133.12 437.198049 314.692683-3.121951-2.872195-6.993171-4.745366-11.239024-5.12-30.220488-75.55122-103.773659-20.854634-78.798049 45.830244-133.494634 102.649756-99.402927 174.329756-55.445854 215.289756 23.102439 21.603902 45.080976 53.947317 59.441952 77.299512-15.609756 45.45561 57.443902 27.348293 93.533658-49.95122C916.542439 800.842927 789.166829 924.097561 627.949268 965.057561z m312.694634-546.091707c6.993171 32.593171 10.24 65.93561 9.61561 99.15317-1.498537-25.100488-4.745366-50.076098-9.990244-74.677073 0.499512-8.616585 0.62439-16.858537 0.374634-24.476097z m0 0" p-id="21348" fill="#515151"></path></svg>