<?xml version="1.0" standalone="no"?><!DOCTYPE svg PUBLIC "-//W3C//DTD SVG 1.1//EN" "http://www.w3.org/Graphics/SVG/1.1/DTD/svg11.dtd"><svg t="1566550458577" class="icon" viewBox="0 0 1292 1024" version="1.1" xmlns="http://www.w3.org/2000/svg" p-id="53279" xmlns:xlink="http://www.w3.org/1999/xlink" width="252.34375" height="200"><defs><style type="text/css"></style></defs><path d="M62.068129 763.313856a62.068129 62.068129 0 1 0 62.06813 62.06813 62.068129 62.068129 0 0 0-62.06813-62.06813z m0 99.309007a37.240878 37.240878 0 1 1 37.240878-37.240877 37.240878 37.240878 0 0 1-37.240878 37.240877z" fill="#FABD49" p-id="53280"></path><path d="M1241.362589 837.795612m-37.240877 0a37.240878 37.240878 0 1 0 74.481755 0 37.240878 37.240878 0 1 0-74.481755 0Z" fill="#FABD49" p-id="53281"></path><path d="M1082.219905 105.391684l105.391684 105.391684 105.267548-105.391684L1187.611589 0z m175.528671 0l-70.136987 70.261122L1117.22633 105.391684l70.261123-70.261123zM645.508546 30.909928a496.545036 496.545036 0 1 0 496.545036 496.545036 496.545036 496.545036 0 0 0-496.545036-496.545036z m84.785065 794.472058c93.102194-159.26682-7.324039-274.465269-70.261122-351.678022-2.97927 76.467936-2.97927 102.412414-45.558007 161.377137 3.103406-19.737665 4.096497-65.171536-20.730755-86.895382 6.206813 107.502-100.302097 129.225846-24.827252 277.196267-249.265608-117.929446-108.619227-277.196266-90.991878-407.539338a173.790763 173.790763 0 0 1 39.351194 84.785064c75.474845-110.108862 80.31616-154.797915 97.198691-260.686143 83.791975 34.137471 152.066917 144.370469 163.487453 221.334949 8.192993-44.440781 1.98618-75.474845 0-111.722633 269.996363 289.734028 0.99309 443.787126-47.668324 473.828101z" fill="#FABD49" p-id="53282"></path></svg>