<?xml version="1.0" standalone="no"?><!DOCTYPE svg PUBLIC "-//W3C//DTD SVG 1.1//EN" "http://www.w3.org/Graphics/SVG/1.1/DTD/svg11.dtd"><svg t="1566287883674" class="icon" viewBox="0 0 1024 1024" version="1.1" xmlns="http://www.w3.org/2000/svg" p-id="11750" xmlns:xlink="http://www.w3.org/1999/xlink" width="200" height="200"><defs><style type="text/css"></style></defs><path d="M536.46528 49.7664C618.97408 69.376 685.86688 154.0864 685.86688 238.848V785.152c0 84.7872-66.9952 169.472-149.4016 189.1072L327.46688 1024V0l208.9984 49.7664z" fill="#1C1C1C" p-id="11751"></path><path d="M452.361079 370.290332m18.101934 18.101934l108.611601 108.611601q18.101934 18.101934 0 36.203867l0 0q-18.101934 18.101934-36.203867 0l-108.611601-108.611601q-18.101934-18.101934 0-36.203867l0 0q18.101934-18.101934 36.203867 0Z" fill="#8D8D8D" p-id="11752"></path><path d="M434.06528 641.2544c9.984 9.984 26.2912 9.9072 36.1472 0.0512l108.7232-108.7232a25.4976 25.4976 0 0 0-0.0512-36.1472 25.6768 25.6768 0 0 0-36.1472-0.0512L434.01408 605.1072a25.4976 25.4976 0 0 0 0.0512 36.1472z" fill="#8D8D8D" p-id="11753"></path></svg>