<?xml version="1.0" standalone="no"?><!DOCTYPE svg PUBLIC "-//W3C//DTD SVG 1.1//EN" "http://www.w3.org/Graphics/SVG/1.1/DTD/svg11.dtd"><svg t="1566456249497" class="icon" viewBox="0 0 1024 1024" version="1.1" xmlns="http://www.w3.org/2000/svg" p-id="11182" xmlns:xlink="http://www.w3.org/1999/xlink" width="200" height="200"><defs><style type="text/css"></style></defs><path d="M3.663 513.628a508.82 508.82 0 1 0 1017.64 0 508.82 508.82 0 1 0-1017.64 0z" fill="#FE3D50" p-id="11183"></path><path d="M157.041 513.628a355.442 355.442 0 1 0 710.885 0 355.442 355.442 0 1 0-710.885 0z" fill="#F8E71C" p-id="11184"></path><path d="M897.654 807.643h-770.34a25.441 25.441 0 0 1-25.442-25.44V245.06a25.441 25.441 0 0 1 25.441-25.44h770.34a25.441 25.441 0 0 1 25.442 25.44V782.21a25.441 25.441 0 0 1-25.441 25.44z" fill="#FFFFFF" p-id="11185"></path><path d="M923.114 724.967v44.521c0 14.056-11.385 25.441-25.441 25.441H127.319c-14.056 0-25.44-11.385-25.44-25.44v-44.522c0 14.056 11.384 25.44 25.44 25.44h770.354c14.056 0 25.44-11.384 25.44-25.44z" fill="#F0F2F1" p-id="11186"></path><path d="M923.114 245.022v37.462H101.878v-37.462c0-13.992 11.385-25.44 25.441-25.44h770.354c14.056 0 25.44 11.448 25.44 25.44z" fill="#FFFFFF" p-id="11187"></path><path d="M165.48 638.658h230.477v168.521H165.481z" fill="#51E4C2" p-id="11188"></path><path d="M146.26 251.033a10.78 10.78 0 1 0 21.562 0 10.78 10.78 0 1 0-21.562 0z" fill="#FE3D50" p-id="11189"></path><path d="M183.627 251.033a10.78 10.78 0 1 0 21.561 0 10.78 10.78 0 1 0-21.561 0z" fill="#F8E71C" p-id="11190"></path><path d="M220.994 251.033a10.78 10.78 0 1 0 21.56 0 10.78 10.78 0 1 0-21.56 0z" fill="#51E4C2" p-id="11191"></path><path d="M101.878 282.484h821.217" fill="" p-id="11192"></path><path d="M448.162 346.087h118.46v17.49h-118.46z m0 63.602h411.031v17.49h-411.03z m0 63.603h411.031v17.49h-411.03z m0 165.366h118.46v17.49h-118.46z m0 63.602h411.031v17.491h-411.03z m0 63.603h411.031v17.49h-411.03z" fill="#E8EDEB" p-id="11193"></path><path d="M165.48 346.087h230.477v230.476H165.481z" fill="#2283F6" p-id="11194"></path><path d="M165.48 556.903h230.477v19.66H165.481z" fill="#252528" p-id="11195"></path><path d="M646.125 537.95h-91.162a19.08 19.08 0 0 0-19.08 19.08v0.446a19.08 19.08 0 0 0 19.08 19.08h91.162a19.08 19.08 0 0 0 19.08-19.08v-0.445a19.08 19.08 0 0 0-19.08-19.081z" fill="#F8E71C" p-id="11196"></path><path d="M836.932 537.95h-91.161a19.08 19.08 0 0 0-19.08 19.08v0.446a19.08 19.08 0 0 0 19.08 19.08h91.161a19.08 19.08 0 0 0 19.081-19.08v-0.445a19.08 19.08 0 0 0-19.08-19.081z" fill="#FE3D50" p-id="11197"></path></svg>