<?xml version="1.0" standalone="no"?><!DOCTYPE svg PUBLIC "-//W3C//DTD SVG 1.1//EN" "http://www.w3.org/Graphics/SVG/1.1/DTD/svg11.dtd"><svg t="1566364419001" class="icon" viewBox="0 0 1024 1024" version="1.1" xmlns="http://www.w3.org/2000/svg" p-id="10287" xmlns:xlink="http://www.w3.org/1999/xlink" width="200" height="200"><defs><style type="text/css"></style></defs><path d="M512 0C228.8 0 0 228.8 0 512s228.8 512 512 512 512-228.8 512-512S795.2 0 512 0z m123.2 523.2l-224 224c-3.2 3.2-6.4 4.8-11.2 4.8s-8-1.6-11.2-4.8c-6.4-6.4-6.4-16 0-22.4L601.6 512 388.8 299.2c-6.4-6.4-6.4-16 0-22.4s16-6.4 22.4 0l224 224c6.4 6.4 6.4 16 0 22.4z" fill="#F1F1F1" p-id="10288"></path><path d="M411.2 276.8c-6.4-6.4-16-6.4-22.4 0s-6.4 16 0 22.4L601.6 512 388.8 724.8c-6.4 6.4-6.4 16 0 22.4 3.2 3.2 8 4.8 11.2 4.8s8-1.6 11.2-4.8l224-224c6.4-6.4 6.4-16 0-22.4l-224-224z" fill="#999999" p-id="10289"></path></svg>